<svg width="24" height="24" viewBox="0 0 24 24" fill="none" xmlns="http://www.w3.org/2000/svg">
  <rect width="24" height="24" rx="6" fill="#D0D0D8"/>
  <rect x="4" y="4" width="6.85714" height="6.85714" rx="3.42857" fill="#FFD49F"/>
  <path fill-rule="evenodd" clip-rule="evenodd"
        d="M8.98943 6.98062C9.06078 6.50027 8.69769 6.24205 8.20122 6.06979L8.36227 5.4191L7.96906 5.32039L7.81227 5.95393C7.7089 5.92798 7.60273 5.9035 7.49723 5.87925L7.65514 5.24153L7.26216 5.14282L7.101 5.79329C7.01544 5.77366 6.93144 5.75426 6.84991 5.73384L6.85036 5.73181L6.30809 5.59542L6.20348 6.01846C6.20348 6.01846 6.49523 6.08581 6.48907 6.08998C6.64832 6.13003 6.6771 6.23618 6.67229 6.32034L6.48884 7.06162C6.49982 7.06444 6.51404 7.0685 6.52972 7.07482L6.5164 7.07147L6.48817 7.06444L6.23103 8.10286C6.21155 8.1516 6.16216 8.2247 6.05084 8.19695C6.05476 8.2027 5.76503 8.12509 5.76503 8.12509L5.56982 8.57847L6.08152 8.70696C6.13867 8.72139 6.19513 8.73622 6.251 8.7509C6.2882 8.76067 6.32514 8.77037 6.36184 8.77984L6.19912 9.43798L6.59188 9.53669L6.75304 8.88554C6.86033 8.91487 6.96448 8.94195 7.06639 8.96744L6.9058 9.61554L7.299 9.71425L7.46173 9.05735C8.13224 9.18517 8.63643 9.13361 8.84866 8.52274C9.01967 8.03089 8.84015 7.74717 8.48737 7.56216C8.74428 7.50248 8.93781 7.33225 8.98943 6.98062ZM8.09134 8.24968C7.97986 8.70094 7.27864 8.51438 6.9578 8.42902L6.95779 8.42901C6.92893 8.42133 6.90314 8.41447 6.88114 8.40897L7.09706 7.53706C7.12385 7.54379 7.15659 7.55119 7.19367 7.55957C7.52551 7.63458 8.20558 7.78829 8.09134 8.24968ZM7.26037 7.15491C7.52787 7.22682 8.11136 7.38367 8.213 6.97354C8.31679 6.55403 7.74968 6.42757 7.47272 6.36581C7.44156 6.35886 7.41408 6.35273 7.39164 6.3471L7.19587 7.1379C7.21436 7.14254 7.23606 7.14838 7.26037 7.15491Z"
        fill="#F7931A"/>
  <rect x="12.8572" y="4" width="6.85714" height="6.85714" rx="3.42857" fill="white"/>
  <path d="M14.8567 7.47096L16.2848 8.30034V6.83321V5.14284L14.8567 7.47096Z" fill="#898989"/>
  <path d="M16.2837 5.14284V6.8332V8.30033L17.7118 7.47096L16.2837 5.14284Z" fill="#323232"/>
  <path d="M16.2837 6.83343L17.7114 7.47098L16.2837 8.30014V6.83343Z" fill="#141414"/>
  <path d="M16.2848 6.83322L16.2853 6.83336V8.29993L16.2848 8.30035L14.8567 7.47097L16.2848 6.83322Z" fill="#373737"/>
  <path d="M14.8567 7.73708L16.2848 9.71431V8.56604L14.8567 7.73708Z" fill="#898989"/>
  <path d="M16.2837 8.56604V9.71431L17.7127 7.73708L16.2837 8.56604Z" fill="#323232"/>
  <rect x="4" y="12.8571" width="6.85714" height="6.85714" rx="3.42857" fill="#DCFFFB"/>
  <path fill-rule="evenodd" clip-rule="evenodd"
        d="M8.68368 15.456C8.66445 15.4645 8.64369 15.469 8.6227 15.469H5.49249C5.47756 15.469 5.46296 15.4645 5.45047 15.4563C5.43798 15.448 5.42815 15.4362 5.42218 15.4223C5.41621 15.4084 5.41436 15.3931 5.41685 15.3782C5.41935 15.3633 5.42608 15.3494 5.43622 15.3383L6.0958 14.6209C6.11009 14.6053 6.12738 14.5929 6.14662 14.5844C6.16585 14.5758 6.18661 14.5714 6.2076 14.5714H9.33781C9.35286 14.5711 9.3677 14.5753 9.3804 14.5835C9.39311 14.5917 9.40317 14.6035 9.40925 14.6175C9.41536 14.6315 9.41722 14.6469 9.41465 14.662C9.41208 14.677 9.40518 14.691 9.39482 14.7021L8.7345 15.4195C8.72021 15.4351 8.70292 15.4475 8.68368 15.456ZM8.73471 15.9844C8.72037 15.9689 8.70306 15.9565 8.68384 15.948C8.66462 15.9395 8.64389 15.9351 8.62291 15.935H5.4927C5.47777 15.935 5.46317 15.9394 5.45068 15.9477C5.43819 15.956 5.42836 15.9678 5.42239 15.9817C5.41642 15.9955 5.41457 16.0108 5.41706 16.0258C5.41955 16.0407 5.42629 16.0545 5.43643 16.0656L6.09601 16.7835C6.11035 16.799 6.12766 16.8114 6.14688 16.8199C6.1661 16.8284 6.18683 16.8328 6.20781 16.8329H9.33802C9.35292 16.8328 9.36746 16.8284 9.3799 16.82C9.39235 16.8117 9.40211 16.7999 9.40804 16.7861C9.41396 16.7722 9.41579 16.7569 9.41326 16.742C9.41076 16.7272 9.40405 16.7133 9.39392 16.7023L8.73471 15.9844ZM9.39503 17.4295L8.73471 18.147C8.72042 18.1626 8.70313 18.175 8.68389 18.1835C8.66466 18.192 8.6439 18.1964 8.62291 18.1965H5.4927C5.47777 18.1964 5.46317 18.192 5.45068 18.1837C5.43819 18.1754 5.42836 18.1636 5.42239 18.1498C5.41642 18.1359 5.41457 18.1206 5.41706 18.1057C5.41955 18.0908 5.42629 18.0769 5.43643 18.0658L6.09601 17.3484C6.1103 17.3328 6.12759 17.3203 6.14683 17.3118C6.16606 17.3033 6.18682 17.2989 6.20781 17.2989H9.33802C9.35307 17.2986 9.3679 17.3028 9.38061 17.311C9.39332 17.3192 9.40338 17.331 9.40945 17.345C9.41557 17.3589 9.41743 17.3744 9.41486 17.3895C9.41229 17.4045 9.40539 17.4185 9.39503 17.4295Z"
        fill="url(#paint0_linear_8186_1938)"/>
  <rect x="12.8572" y="12.8571" width="6.85714" height="6.85714" rx="3.42857" fill="#999CB3"/>
  <path d="M16.0979 17.4286V15.1429H16.473V17.4286H16.0979ZM15.1426 16.4692V16.097H17.4283V16.4692H15.1426Z"
        fill="#2D3153"/>
  <defs>
    <linearGradient id="paint0_linear_8186_1938" x1="7.82209" y1="19.7701" x2="10.7176" y2="15.7425"
                    gradientUnits="userSpaceOnUse">
      <stop offset="0.08" stop-color="#9945FF"/>
      <stop offset="0.3" stop-color="#8752F3"/>
      <stop offset="0.5" stop-color="#5497D5"/>
      <stop offset="0.6" stop-color="#43B4CA"/>
      <stop offset="0.72" stop-color="#28E0B9"/>
      <stop offset="0.97" stop-color="#19FB9B"/>
    </linearGradient>
  </defs>
</svg>
